<?xml version="1.0" encoding="UTF-8" standalone="no" ?>
<!DOCTYPE svg PUBLIC "-//W3C//DTD SVG 1.1//EN" "http://www.w3.org/Graphics/SVG/1.1/DTD/svg11.dtd">
<svg xmlns="http://www.w3.org/2000/svg" xmlns:xlink="http://www.w3.org/1999/xlink" version="1.1" width="300" height="480" viewBox="0 0 300 480" xml:space="preserve">
<desc>Created with Fabric.js 3.6.6</desc>
<defs>
</defs>
<g transform="matrix(1 0 0 1 136.82 241.92)"  >
<g style=""   >
		<g transform="matrix(1 0 0 1 -120.32 47.08)"  >
<line style="stroke: rgb(0,0,0); stroke-width: 2; stroke-dasharray: none; stroke-linecap: butt; stroke-dashoffset: 0; stroke-linejoin: miter; stroke-miterlimit: 4; fill: rgb(0,0,0); fill-rule: nonzero; opacity: 1;"  x1="0" y1="0" x2="0" y2="0" />
</g>
		<g transform="matrix(1 0 0 0.9 -62 88.5)"  >
<g style=""   >
		<g transform="matrix(0.58 0 0 1.73 0 -40.38)"  >
<polygon style="stroke: rgb(28,214,0); stroke-width: 8; stroke-dasharray: none; stroke-linecap: butt; stroke-dashoffset: 0; stroke-linejoin: miter; stroke-miterlimit: 4; fill: rgb(28,214,0); fill-rule: nonzero; opacity: 1;"  points="-50,-50 -50,50 50,50 50,-50 " />
</g>
		<g transform="matrix(1 0 0 1 0.18 -2.5)"  >
<line style="stroke: rgb(28,214,0); stroke-width: 5; stroke-dasharray: none; stroke-linecap: butt; stroke-dashoffset: 0; stroke-linejoin: miter; stroke-miterlimit: 4; fill: rgb(0,0,0); fill-rule: nonzero; opacity: 1;"  x1="0" y1="-151.29854592824083" x2="0" y2="151.29854592824083" />
</g>
</g>
</g>
		<g transform="matrix(1 0 0 1 13 -5.31)"  >
<g style=""   >
		<g transform="matrix(0.58 0 0 0.85 0 20.29)"  >
<polygon style="stroke: rgb(255,0,0); stroke-width: 8; stroke-dasharray: none; stroke-linecap: butt; stroke-dashoffset: 0; stroke-linejoin: miter; stroke-miterlimit: 4; fill: rgb(255,0,0); fill-rule: nonzero; opacity: 1;"  points="-50,-50 -50,50 50,50 50,-50 " />
</g>
		<g transform="matrix(-0.65 0 0 0.65 -0.2 0.68)"  >
<line style="stroke: rgb(255,0,0); stroke-width: 5; stroke-dasharray: none; stroke-linecap: butt; stroke-dashoffset: 0; stroke-linejoin: miter; stroke-miterlimit: 4; fill: rgb(0,0,0); fill-rule: nonzero; opacity: 1;"  x1="0" y1="-151.29854592824083" x2="0" y2="151.29854592824083" />
</g>
</g>
</g>
		<g transform="matrix(0.58 0 0 1.81 89 -129.18)"  >
<polygon style="stroke: rgb(28,214,0); stroke-width: 8; stroke-dasharray: none; stroke-linecap: butt; stroke-dashoffset: 0; stroke-linejoin: miter; stroke-miterlimit: 4; fill: rgb(28,214,0); fill-rule: nonzero; opacity: 1;"  points="-50,-50 -50,50 50,50 50,-50 " />
</g>
</g>
</g>
</svg>