<?xml version="1.0" encoding="UTF-8"?>
<svg version="1.1" xmlns="http://www.w3.org/2000/svg" width="480" height="480">
<path d="M0 0 C4.06739752 1.37195041 4.06739752 1.37195041 8.1875 0.4375 C15.04441648 2.18289692 19.83849053 5.94286608 25.35546875 10.28125 C28.04941247 12.42167881 28.04941247 12.42167881 30.6171875 13.86328125 C39.10805322 19.06361391 50.77542846 27.81535394 53.87109375 37.59765625 C54.32597006 39.54057754 54.75812211 41.48878498 55.1875 43.4375 C55.70570313 43.8603125 56.22390625 44.283125 56.7578125 44.71875 C58.1875 46.4375 58.1875 46.4375 58.32421875 49.66796875 C56.52817683 65.48875544 50.44158932 77.14233737 39.1875 88.4375 C38.07322149 89.7204537 36.96859231 91.01186836 35.875 92.3125 C32.21306164 96.54580463 28.21832701 100.43627416 24.1862793 104.31396484 C21.76931802 106.67471772 20.27240136 108.18279593 19.1875 111.4375 C23.32402406 115.86261876 27.6646394 119.67119467 32.5 123.3125 C40.48811482 129.35520374 48.269092 135.35586822 53.8359375 143.80859375 C55.08683769 145.57280698 55.08683769 145.57280698 57.13818359 146.25097656 C59.8295255 147.80922313 60.24559805 149.16543058 61.328125 152.05078125 C61.85019531 153.4284668 61.85019531 153.4284668 62.3828125 154.83398438 C62.90488281 156.27741211 62.90488281 156.27741211 63.4375 157.75 C63.80101562 158.70068359 64.16453125 159.65136719 64.5390625 160.63085938 C66.20129538 165.10201586 67.39695669 168.62355478 67.1875 173.4375 C67.09592629 175.72366784 67.09592629 175.72366784 68.1875 178.9375 C68.66399424 182.21867555 68.26394516 183.31490912 66.47265625 186.1875 C64.45267513 188.68673851 62.38374502 191.09227556 60.1875 193.4375 C67.79193372 192.58023625 75.39011719 191.70151666 82.96875 190.63671875 C84.42450439 190.43236206 84.42450439 190.43236206 85.90966797 190.22387695 C87.81033952 189.9545219 89.71043709 189.68107737 91.60986328 189.40307617 C96.52753022 188.70624985 101.22073566 188.28781669 106.1875 188.4375 C106.5882373 187.15407715 106.5882373 187.15407715 106.99707031 185.84472656 C108.20211383 182.39567257 109.64264198 179.20929485 111.234375 175.921875 C111.83566171 174.66745166 112.43630509 173.41271978 113.03637695 172.15771484 C113.3472525 171.50937683 113.65812805 170.86103882 113.97842407 170.1930542 C118.59667481 160.53568309 123.04020813 150.98646061 126.13183594 140.71289062 C127.84669583 135.11924349 130.18036568 129.96780886 132.6875 124.6875 C136.74838433 116.0290395 139.37102382 107.36687295 141.7109375 98.11328125 C143.23239766 92.10801314 145.07791834 86.22008516 146.9375 80.3125 C149.10149735 73.37845075 150.99180202 66.67067578 151.8984375 59.44921875 C152.1875 57.4375 152.1875 57.4375 153.1875 55.4375 C149.47796611 56.22360854 145.77011056 57.01737388 142.0625 57.8125 C141.01578125 58.03421875 139.9690625 58.2559375 138.890625 58.484375 C134.7554097 59.37423146 130.73642823 60.25163265 126.7265625 61.609375 C122.70421768 62.92127823 119.24697846 62.43776717 115.1875 61.4375 C106.94118072 57.1557573 103.429195 50.73296605 100.11328125 42.38671875 C99.30190235 39.80194629 98.94710499 38.04007512 99.0625 35.375 C99.20952247 30.74379209 98.0575458 27.29359902 96.55078125 22.953125 C96.1875 20.4375 96.1875 20.4375 97.5625 18.3125 C98.366875 17.384375 98.366875 17.384375 99.1875 16.4375 C99.90795367 13.28631675 99.90795367 13.28631675 100.1875 10.4375 C109.05601345 8.2060058 117.96540464 7.47114657 127.05859375 6.66992188 C128.25871094 6.55326172 129.45882813 6.43660156 130.6953125 6.31640625 C132.31397217 6.17054077 132.31397217 6.17054077 133.96533203 6.02172852 C137.27196888 5.5666467 137.27196888 5.5666467 140.36987305 3.92822266 C145.29429043 1.68802958 150.4325992 1.84906721 155.76171875 1.70703125 C156.88077103 1.666884 157.9998233 1.62673676 159.15278625 1.58537292 C162.72655789 1.46077993 166.30062007 1.35551942 169.875 1.25 C172.22725469 1.16849665 174.5794692 1.08582495 176.93164062 1.00195312 C245.19738704 -1.34169695 245.19738704 -1.34169695 258.8125 8.8125 C261.1875 11.4375 261.1875 11.4375 262.5625 14.5 C264.35927996 17.7480253 264.94062902 17.99360398 268.1875 19.375 C271.48073467 20.85816635 272.12712923 21.34317067 274.1875 24.5625 C275.60230701 28.93896969 276.62169005 34.02133063 275.1875 38.4375 C271.10570623 42.48276264 266.09769981 44.54887288 260.625 46.0625 C259.89740479 46.2677832 259.16980957 46.47306641 258.42016602 46.68457031 C241.04773788 51.31527316 223.07014119 52.01127429 205.1875 52.4375 C205.00388916 53.51580078 204.82027832 54.59410156 204.63110352 55.70507812 C201.79858509 71.40485246 197.27861565 86.58277599 192.74359131 101.85217285 C191.10404057 107.37924642 189.4804724 112.91104109 187.85565376 118.44245911 C187.29631561 120.34182648 186.73281742 122.23996724 186.16917419 124.13806152 C184.53112151 129.68490761 182.96804674 135.22449423 181.60766602 140.84643555 C180.49453582 145.39013438 179.13839156 149.59411676 177.375 153.92578125 C177.12000732 154.55808151 176.86501465 155.19038177 176.60229492 155.84184265 C175.80474052 157.814322 174.99635312 159.7821314 174.1875 161.75 C173.64772369 163.08109097 173.10865775 164.41247023 172.5703125 165.74414062 C170.16856796 171.66887573 167.70607806 177.56081786 165.1875 183.4375 C172.1175 183.4375 179.0475 183.4375 186.1875 183.4375 C186.8475 184.7575 187.5075 186.0775 188.1875 187.4375 C190.7403281 189.07269975 190.7403281 189.07269975 193.6875 190.4375 C197.69642294 192.37866268 199.36629882 193.41466894 201.1875 197.4375 C202.85650889 198.64500126 202.85650889 198.64500126 204.75 199.5 C208.1875 201.4375 208.1875 201.4375 209.1875 204.4375 C209.90968492 211.8037862 207.22642706 216.27364767 203.375 222.25 C200.61820678 225.00679322 197.78219455 225.99962218 194.1875 227.4375 C193.72649902 227.95103027 193.26549805 228.46456055 192.79052734 228.99365234 C190.57034425 230.99337254 189.05823702 230.84945583 186.1015625 230.9140625 C185.09351563 230.94443604 184.08546875 230.97480957 183.046875 231.00610352 C181.44585937 231.03401978 181.44585937 231.03401978 179.8125 231.0625 C177.637972 231.12461547 175.46349116 231.18840551 173.2890625 231.25390625 C172.24008789 231.28242676 171.19111328 231.31094727 170.11035156 231.34033203 C164.78741219 231.51728909 159.4906029 231.95069173 154.1875 232.4375 C154.1875 233.4275 154.1875 234.4175 154.1875 235.4375 C152.888125 235.2725 151.58875 235.1075 150.25 234.9375 C129.80385359 232.98203171 111.35585201 236.81186727 91.48876953 241.36767578 C86.06297019 242.60905811 80.71649869 243.78492039 75.1875 244.4375 C74.32125 244.56253906 73.455 244.68757812 72.5625 244.81640625 C68.83570565 245.10449726 66.24660946 245.19458205 63.1328125 242.96875 C56.33290213 235.6143405 53.66706998 226.43130153 51.4375 216.875 C51.21707031 215.96169922 50.99664062 215.04839844 50.76953125 214.10742188 C50.23448826 211.88583032 49.70730103 209.6626976 49.1875 207.4375 C48.00220703 208.12972656 48.00220703 208.12972656 46.79296875 208.8359375 C24.67243052 221.62792875 1.70302836 234.4239264 -23.875 238.4375 C-28.35393506 239.17100676 -30.27101685 240.58703795 -33.8125 243.4375 C-37.75725394 244.69893604 -41.76062956 245.59156428 -45.8125 246.4375 C-46.68261719 246.62828125 -47.55273438 246.8190625 -48.44921875 247.015625 C-51.58670845 247.57570581 -54.6333793 247.4998357 -57.8125 247.4375 C-58.1425 246.7775 -58.4725 246.1175 -58.8125 245.4375 C-59.4725 246.0975 -60.1325 246.7575 -60.8125 247.4375 C-67.35775888 248.10408108 -71.43270666 246.66934188 -77.125 243.5625 C-77.82689453 243.19769531 -78.52878906 242.83289063 -79.25195312 242.45703125 C-82.22208538 240.89976458 -85.01712494 239.30108337 -87.8125 237.4375 C-88.52212891 238.41203125 -88.52212891 238.41203125 -89.24609375 239.40625 C-94.57984694 246.14362245 -94.57984694 246.14362245 -98.171875 247 C-100.5 246.9375 -100.5 246.9375 -102.78515625 246.66015625 C-104.95416889 246.27245515 -104.95416889 246.27245515 -107.4375 247.375 C-109.8125 247.4375 -109.8125 247.4375 -111.45703125 246.05078125 C-112.67271163 244.78742713 -113.86633072 243.50253857 -115.0390625 242.19921875 C-116.85727619 240.17921213 -116.85727619 240.17921213 -120.125 239 C-122.8125 237.4375 -122.8125 237.4375 -123.5234375 235.51953125 C-123.96084366 233.4938388 -124.3872171 231.46577229 -124.8125 229.4375 C-125.8025 229.1075 -126.7925 228.7775 -127.8125 228.4375 C-128.65625 226.58203125 -128.65625 226.58203125 -129.3125 224.25 C-130.18100107 221.30725969 -130.94885972 219.21348046 -132.5625 216.5625 C-134.47052911 211.79242722 -133.82751615 207.40653427 -132.8125 202.4375 C-131.3125 199.375 -131.3125 199.375 -129.8125 197.4375 C-128.41466183 194.64182366 -129.24514802 192.56316955 -129.8515625 189.60546875 C-129.79716297 186.58629461 -128.38653104 185.00488706 -126.8125 182.4375 C-125.82256155 179.76910822 -125.03920859 177.04609949 -124.25 174.3125 C-122.07149281 166.82598921 -122.07149281 166.82598921 -119.8125 163.4375 C-119.99039063 162.82132813 -120.16828125 162.20515625 -120.3515625 161.5703125 C-121.02732925 158.44345958 -119.7682478 157.04571417 -118.1875 154.3125 C-114.01888553 146.39020259 -112.00707753 138.07410419 -109.8125 129.4375 C-109.25996496 127.31621921 -108.70249626 125.19634804 -108.14111328 123.07739258 C-107.65664073 121.24469297 -107.18150713 119.40953184 -106.70703125 117.57421875 C-105.8125 114.4375 -105.8125 114.4375 -104.75 111.890625 C-103.67129004 109.0680006 -103.3442351 106.49976297 -103 103.5 C-102.29924012 98.48730632 -101.08326057 94.15235117 -99.25 89.4375 C-96.6963259 82.7528825 -95.94265169 76.56034706 -95.8125 69.4375 C-100.43122707 71.38762921 -102.64681196 72.88955512 -104.8125 77.4375 C-105.080625 78.324375 -105.34875 79.21125 -105.625 80.125 C-106.8125 82.4375 -106.8125 82.4375 -109.3125 83.6875 C-110.4675 83.935 -111.6225 84.1825 -112.8125 84.4375 C-113.53695312 84.61796875 -114.26140625 84.7984375 -115.0078125 84.984375 C-122.86867949 86.45038878 -128.31270176 83.75422279 -134.8125 79.4375 C-145.63609145 71.23492881 -153.23415366 60.82420072 -158.8125 48.4375 C-158.94939509 41.04516511 -154.92337287 36.79901192 -150.1640625 31.65625 C-134.83053824 16.92535333 -111.05825599 11.49325537 -90.62109375 8.515625 C-83.81707134 7.49797563 -77.18335061 5.99174932 -70.5 4.375 C-68.27567882 3.8385385 -66.05043434 3.30588872 -63.82421875 2.77734375 C-62.85959717 2.54394287 -61.89497559 2.31054199 -60.90112305 2.07006836 C-54.4558253 0.75003307 -47.99265286 0.25312682 -41.4375 -0.09765625 C-40.66873535 -0.14063339 -39.8999707 -0.18361053 -39.10791016 -0.22789001 C-37.49454011 -0.31741363 -35.88109407 -0.40557738 -34.26757812 -0.49243164 C-31.81878726 -0.6246605 -29.37033648 -0.76221061 -26.921875 -0.90039062 C-25.34376745 -0.98729669 -23.76564295 -1.07389549 -22.1875 -1.16015625 C-21.46643066 -1.20076675 -20.74536133 -1.24137726 -20.00244141 -1.28321838 C-6.299646 -2.00975831 -6.299646 -2.00975831 0 0 Z M-73.8125 61.4375 C-68.71510698 67.06220954 -62.05832444 73.02222519 -54.8125 75.4375 C-54.11098848 76.7528341 -53.44724075 78.08867592 -52.8125 79.4375 C-51.83474158 80.45925754 -50.83724767 81.46287586 -49.8125 82.4375 C-32.09811326 74.18727166 -15.84385146 63.16448843 -3.8125 47.4375 C-3.8125 47.1075 -3.8125 46.7775 -3.8125 46.4375 C-27.80260697 45.4142253 -52.79045762 49.38828059 -73.8125 61.4375 Z M-46.69482422 144.87109375 C-48.8125 145.4375 -48.8125 145.4375 -52.62890625 146.03125 C-56.23241356 147.62298329 -56.38328031 148.01233355 -57.80932617 151.45532227 C-58.14705551 152.26788483 -58.48478485 153.08044739 -58.83274841 153.91763306 C-60.33014394 157.76885161 -61.72117923 161.64516878 -63.046875 165.55859375 C-63.32976379 166.38456558 -63.61265259 167.21053741 -63.90411377 168.0615387 C-64.49422152 169.78766008 -65.08231825 171.5144702 -65.66845703 173.24194336 C-66.56906026 175.89432071 -67.47744069 178.54394494 -68.38671875 181.19335938 C-68.96139628 182.87744768 -69.53563132 184.56168707 -70.109375 186.24609375 C-70.38118591 187.0387413 -70.65299683 187.83138885 -70.93304443 188.64805603 C-72.31573575 192.45679539 -72.31573575 192.45679539 -72.8125 196.4375 C-51.87619863 192.91723694 -33.38544811 184.7781302 -14.22314453 175.9609375 C-9.91575477 174.03694952 -5.54689024 172.2900201 -1.1484375 170.58569336 C2.17523523 168.95199428 3.30793511 166.57010814 5.1875 163.4375 C6.81334364 162.1946941 8.48589452 161.01186975 10.1875 159.875 C15.42611749 156.39856742 15.42611749 156.39856742 19.1875 151.4375 C19.21179399 148.90084188 19.21179399 148.90084188 18.1875 146.4375 C15.91951745 144.81025487 15.91951745 144.81025487 13.0625 143.75 C12.13179688 143.35425781 11.20109375 142.95851562 10.2421875 142.55078125 C-9.02368031 135.52933326 -27.59493389 139.28373805 -46.69482422 144.87109375 Z " fill="#FEFEFE" transform="translate(182.8125,108.5625)"/>
<path d="M0 0 C2.375 2.625 2.375 2.625 3.75 5.6875 C5.54677996 8.9355253 6.12812902 9.18110398 9.375 10.5625 C12.66823467 12.04566635 13.31462923 12.53067067 15.375 15.75 C16.78980701 20.12646969 17.80919005 25.20883063 16.375 29.625 C12.29320623 33.67026264 7.28519981 35.73637288 1.8125 37.25 C1.08490479 37.4552832 0.35730957 37.66056641 -0.39233398 37.87207031 C-17.76476212 42.50277316 -35.74235881 43.19877429 -53.625 43.625 C-53.80861084 44.70330078 -53.99222168 45.78160156 -54.18139648 46.89257812 C-57.01391491 62.59235246 -61.53388435 77.77027599 -66.06890869 93.03967285 C-67.70845943 98.56674642 -69.3320276 104.09854109 -70.95684624 109.62995911 C-71.51618439 111.52932648 -72.07968258 113.42746724 -72.64332581 115.32556152 C-74.28137849 120.87240761 -75.84445326 126.41199423 -77.20483398 132.03393555 C-78.31796418 136.57763438 -79.67410844 140.78161676 -81.4375 145.11328125 C-81.81998901 146.06173164 -81.81998901 146.06173164 -82.21020508 147.02934265 C-83.00775948 149.001822 -83.81614688 150.9696314 -84.625 152.9375 C-85.16477631 154.26859097 -85.70384225 155.59997023 -86.2421875 156.93164062 C-88.64393204 162.85637573 -91.10642194 168.74831786 -93.625 174.625 C-86.695 174.625 -79.765 174.625 -72.625 174.625 C-71.965 175.945 -71.305 177.265 -70.625 178.625 C-68.0721719 180.26019975 -68.0721719 180.26019975 -65.125 181.625 C-61.11607706 183.56616268 -59.44620118 184.60216894 -57.625 188.625 C-55.95599111 189.83250126 -55.95599111 189.83250126 -54.0625 190.6875 C-50.625 192.625 -50.625 192.625 -49.625 195.625 C-48.90281508 202.9912862 -51.58607294 207.46114767 -55.4375 213.4375 C-58.19429322 216.19429322 -61.03030545 217.18712218 -64.625 218.625 C-65.08600098 219.13853027 -65.54700195 219.65206055 -66.02197266 220.18115234 C-68.24215575 222.18087254 -69.75426298 222.03695583 -72.7109375 222.1015625 C-73.71898437 222.13193604 -74.72703125 222.16230957 -75.765625 222.19360352 C-77.36664063 222.22151978 -77.36664063 222.22151978 -79 222.25 C-81.174528 222.31211547 -83.34900884 222.37590551 -85.5234375 222.44140625 C-86.57241211 222.46992676 -87.62138672 222.49844727 -88.70214844 222.52783203 C-94.02508781 222.70478909 -99.3218971 223.13819173 -104.625 223.625 C-104.625 224.615 -104.625 225.605 -104.625 226.625 C-105.924375 226.46 -107.22375 226.295 -108.5625 226.125 C-129.00864641 224.16953171 -147.45664799 227.99936727 -167.32373047 232.55517578 C-172.74952981 233.79655811 -178.09600131 234.97242039 -183.625 235.625 C-184.49125 235.75003906 -185.3575 235.87507812 -186.25 236.00390625 C-189.97679435 236.29199726 -192.56589054 236.38208205 -195.6796875 234.15625 C-202.33397539 226.95933777 -205.12770616 217.83867419 -207.4375 208.5 C-207.78071289 207.21802734 -207.78071289 207.21802734 -208.13085938 205.91015625 C-209.39620899 200.8719752 -210.20530681 196.71370996 -208.625 191.625 C-204.65871795 186.63913252 -201.84344323 184.92665585 -195.56874084 184.03042603 C-194.68109543 183.93015106 -193.79345001 183.8298761 -192.87890625 183.7265625 C-191.94956772 183.60187592 -191.02022919 183.47718933 -190.06272888 183.34872437 C-187.10684348 182.95858043 -184.14785934 182.60440412 -181.1875 182.25 C-179.20218045 181.9905171 -177.21714899 181.72881982 -175.23242188 181.46484375 C-159.75407715 179.45472815 -159.75407715 179.45472815 -152.625 179.625 C-152.2242627 178.34157715 -152.2242627 178.34157715 -151.81542969 177.03222656 C-150.61038617 173.58317257 -149.16985802 170.39679485 -147.578125 167.109375 C-146.97683829 165.85495166 -146.37619491 164.60021978 -145.77612305 163.34521484 C-145.4652475 162.69687683 -145.15437195 162.04853882 -144.83407593 161.3805542 C-140.21582519 151.72318309 -135.77229187 142.17396061 -132.68066406 131.90039062 C-130.96580417 126.30674349 -128.63213432 121.15530886 -126.125 115.875 C-122.06411567 107.2165395 -119.44147618 98.55437295 -117.1015625 89.30078125 C-115.58010234 83.29551314 -113.73458166 77.40758516 -111.875 71.5 C-109.71100265 64.56595075 -107.82069798 57.85817578 -106.9140625 50.63671875 C-106.625 48.625 -106.625 48.625 -105.625 46.625 C-109.33453389 47.41110854 -113.04238944 48.20487388 -116.75 49 C-117.79671875 49.22171875 -118.8434375 49.4434375 -119.921875 49.671875 C-124.0570903 50.56173146 -128.07607177 51.43913265 -132.0859375 52.796875 C-136.10828232 54.10877823 -139.56552154 53.62526717 -143.625 52.625 C-151.87131928 48.3432573 -155.383305 41.92046605 -158.69921875 33.57421875 C-159.51059765 30.98944629 -159.86539501 29.22757512 -159.75 26.5625 C-159.60297753 21.93129209 -160.7549542 18.48109902 -162.26171875 14.140625 C-162.625 11.625 -162.625 11.625 -161.25 9.5 C-160.71375 8.88125 -160.1775 8.2625 -159.625 7.625 C-158.90454633 4.47381675 -158.90454633 4.47381675 -158.625 1.625 C-149.75648655 -0.6064942 -140.84709536 -1.34135343 -131.75390625 -2.14257812 C-130.55378906 -2.25923828 -129.35367188 -2.37589844 -128.1171875 -2.49609375 C-127.03808105 -2.5933374 -125.95897461 -2.69058105 -124.84716797 -2.79077148 C-121.54053112 -3.2458533 -121.54053112 -3.2458533 -118.44262695 -4.88427734 C-113.51820957 -7.12447042 -108.3799008 -6.96343279 -103.05078125 -7.10546875 C-101.93172897 -7.145616 -100.8126767 -7.18576324 -99.65971375 -7.22712708 C-96.08594211 -7.35172007 -92.51187993 -7.45698058 -88.9375 -7.5625 C-86.58524531 -7.64400335 -84.2330308 -7.72667505 -81.88085938 -7.81054688 C-13.61511296 -10.15419695 -13.61511296 -10.15419695 0 0 Z " fill="#4FC2F7" transform="translate(441.625,117.375)"/>
</svg>
