<?xml version="1.0" encoding="UTF-8" standalone="no" ?>
<!DOCTYPE svg PUBLIC "-//W3C//DTD SVG 1.1//EN" "http://www.w3.org/Graphics/SVG/1.1/DTD/svg11.dtd">
<svg xmlns="http://www.w3.org/2000/svg" xmlns:xlink="http://www.w3.org/1999/xlink" version="1.1" width="640" height="480" viewBox="0 0 640 480" xml:space="preserve">
<desc>Created with Fabric.js 3.6.6</desc>
<defs>
</defs>
<g transform="matrix(5.59 0 0 5.59 320 240)"  >
<circle style="stroke: rgb(255,255,255); stroke-width: 8; stroke-dasharray: none; stroke-linecap: butt; stroke-dashoffset: 0; stroke-linejoin: miter; stroke-miterlimit: 4; fill: rgb(255,255,255); fill-rule: nonzero; opacity: 1;" vector-effect="non-scaling-stroke"  cx="0" cy="0" r="40" />
</g>
<g transform="matrix(0.62 0 0 0.62 319.75 240.25)"  >
<g style=""   >
		<g transform="matrix(1 0 0 1 0.02 -74.89)" id="Layer_1"  >
<path style="stroke: none; stroke-width: 1; stroke-dasharray: none; stroke-linecap: butt; stroke-dashoffset: 0; stroke-linejoin: miter; stroke-miterlimit: 4; fill: rgb(0,0,0); fill-rule: nonzero; opacity: 1;"  transform=" translate(-256.02, -181.11)" d="M 484.66 42.55 a 11.91 11.91 0 0 0 -10.93 -7.32 H 384.62 a 11.85 11.85 0 0 0 0 23.7 h 60.5 L 308.55 195.51 l -75.33 -75.33 a 11.85 11.85 0 0 0 -16.76 0 L 29.89 306.75 a 11.85 11.85 0 0 0 16.76 16.76 L 224.84 145.32 l 75.33 75.32 a 11.85 11.85 0 0 0 16.76 0 l 145 -144.95 v 60.5 a 11.85 11.85 0 1 0 23.7 0 V 47.08 A 11.87 11.87 0 0 0 484.66 42.55 Z" stroke-linecap="round" />
</g>
		<g transform="matrix(1 0 0 1 61.6 134.01)" id="Layer_1"  >
<polygon style="stroke: none; stroke-width: 1; stroke-dasharray: none; stroke-linecap: butt; stroke-dashoffset: 0; stroke-linejoin: miter; stroke-miterlimit: 4; fill: rgb(0,0,0); fill-rule: nonzero; opacity: 1;"  points="-25.39,-68.66 -25.39,86.76 25.39,86.76 25.39,-86.76 -9.05,-52.32 -25.39,-68.66 " />
</g>
		<g transform="matrix(1 0 0 1 128.17 100.73)" id="Layer_1"  >
<polygon style="stroke: none; stroke-width: 1; stroke-dasharray: none; stroke-linecap: butt; stroke-dashoffset: 0; stroke-linejoin: miter; stroke-miterlimit: 4; fill: rgb(0,0,0); fill-rule: nonzero; opacity: 1;"  points="-25.38,120.04 25.38,120.04 25.38,-120.05 -25.38,-69.29 -25.38,120.04 " />
</g>
		<g transform="matrix(1 0 0 1 -71.56 116.88)" id="Layer_1"  >
<polygon style="stroke: none; stroke-width: 1; stroke-dasharray: none; stroke-linecap: butt; stroke-dashoffset: 0; stroke-linejoin: miter; stroke-miterlimit: 4; fill: rgb(0,0,0); fill-rule: nonzero; opacity: 1;"  points="-25.38,103.88 25.38,103.88 25.38,-103.88 -25.38,-53.13 -25.38,103.88 " />
</g>
		<g transform="matrix(1 0 0 1 193.54 68.63)" id="Layer_1"  >
<path style="stroke: none; stroke-width: 1; stroke-dasharray: none; stroke-linecap: butt; stroke-dashoffset: 0; stroke-linejoin: miter; stroke-miterlimit: 4; fill: rgb(0,0,0); fill-rule: nonzero; opacity: 1;"  transform=" translate(-449.54, -324.63)" d="M 425.35 476.77 h 48.38 V 172.5 l -48.38 48.38 Z" stroke-linecap="round" />
</g>
		<g transform="matrix(1 0 0 1 -198.52 183.46)" id="Layer_1"  >
<polygon style="stroke: none; stroke-width: 1; stroke-dasharray: none; stroke-linecap: butt; stroke-dashoffset: 0; stroke-linejoin: miter; stroke-miterlimit: 4; fill: rgb(0,0,0); fill-rule: nonzero; opacity: 1;"  points="-19.2,37.31 19.2,37.31 19.2,-37.31 -19.2,1.09 -19.2,37.31 " />
</g>
		<g transform="matrix(1 0 0 1 -138.13 150.16)" id="Layer_1"  >
<polygon style="stroke: none; stroke-width: 1; stroke-dasharray: none; stroke-linecap: butt; stroke-dashoffset: 0; stroke-linejoin: miter; stroke-miterlimit: 4; fill: rgb(0,0,0); fill-rule: nonzero; opacity: 1;"  points="-25.39,70.61 25.39,70.61 25.39,-70.6 -25.39,-19.81 -25.39,70.61 " />
</g>
		<g transform="matrix(1 0 0 1 -4.98 109.76)" id="Layer_1"  >
<polygon style="stroke: none; stroke-width: 1; stroke-dasharray: none; stroke-linecap: butt; stroke-dashoffset: 0; stroke-linejoin: miter; stroke-miterlimit: 4; fill: rgb(0,0,0); fill-rule: nonzero; opacity: 1;"  points="-25.39,111 25.39,111 25.39,-60.21 -25.39,-111 -25.39,111 " />
</g>
</g>
</g>
</svg>